<?xml version="1.0" encoding="utf-8"?>
<svg version="1.1" xmlns:xlink="http://www.w3.org/1999/xlink" width="24px" height="26px" xmlns="http://www.w3.org/2000/svg">
  <g transform="matrix(1 0 0 1 -27 -25 )">
    <path d="M 23.4701086956522 10.4216944801027  C 23.8233695652174 10.8388960205392  24 11.3423192126658  24 11.9319640564827  L 24 14.0680359435173  C 24 14.6576807873342  23.8233695652174 15.1611039794608  23.4701086956522 15.5783055198973  C 23.116847826087 15.9955070603338  22.6576086956522 16.204107830552  22.0923913043478 16  L 10.6141304347826 16  L 15.3913043478261 21.1103979460847  C 15.804347826087 21.5109114249037  16.0108695652174 22.0115532734275  16.0108695652174 22.612323491656  C 16.0108695652174 23.2130937098845  15.804347826087 23.7137355584082  15.3913043478261 24.1142490372272  L 14.1684782608696 25.382541720154  C 13.7663043478261 25.7941805733847  13.2771739130435 26  12.7010869565217 26  C 12.1358695652174 26  11.6413043478261 25.7941805733847  11.2173913043478 25.382541720154  L 0.603260869565217 14.5019255455712  C 0.201086956521739 14.0902866923406  0 13.5896448438169  0 13  C 0 12.4214805305948  0.201086956521739 11.9152759948652  0.603260869565217 11.4813863928113  L 11.2173913043478 0.634146341463415  C 11.6304347826087 0.211382113821136  12.125 0  12.7010869565217 0  C 13.2663043478261 0  13.7554347826087 0.211382113821136  14.1684782608696 0.634146341463415  L 15.3913043478261 1.86906290115533  C 15.804347826087 2.2918271287976  16.0108695652174 2.79803166452717  16.0108695652174 3.38767650834403  C 16.0108695652174 3.97732135216089  15.804347826087 4.48352588789046  15.3913043478261 4.90629011553273  L 10.6141304347826 10  L 22.0923913043478 10  C 22.6576086956522 9.79589216944801  23.116847826087 10.0044929396662  23.4701086956522 10.4216944801027  Z " fill-rule="nonzero" fill="#9b9b9b" stroke="none" transform="matrix(1 0 0 1 27 25 )" />
  </g>
</svg>