<?xml version="1.0" encoding="utf-8"?>
<svg version="1.1" xmlns:xlink="http://www.w3.org/1999/xlink" width="62px" height="62px" xmlns="http://www.w3.org/2000/svg">
  <g transform="matrix(1 0 0 1 -28 -31 )">
    <path d="M 18.9598214285714 2.45647321428571  C 22.7886904761905 0.818824404761904  26.8020833333333 0  31 0  C 35.1979166666667 0  39.2113095238095 0.818824404761904  43.0401785714286 2.45647321428571  C 46.8690476190476 4.09412202380952  50.1674107142857 6.296875  52.9352678571429 9.06473214285714  C 55.703125 11.8325892857143  57.9058779761905 15.1309523809524  59.5435267857143 18.9598214285714  C 61.1811755952381 22.7886904761905  62 26.8020833333333  62 31  C 62 35.1748511904762  61.1869419642857 39.1767113095238  59.5608258928571 43.0055803571429  C 57.9347098214286 46.8344494047619  55.7377232142857 50.1328125  52.9698660714286 52.9006696428571  C 50.2020089285714 55.6685267857143  46.9036458333333 57.8770461309524  43.0747767857143 59.5262276785714  C 39.2459077380952 61.1754092261905  35.2209821428571 62  31 62  C 26.7790178571429 62  22.7540922619048 61.1811755952381  18.9252232142857 59.5435267857143  C 15.0963541666667 57.9058779761905  11.8037574404762 55.6973586309524  9.04743303571428 52.91796875  C 6.29110863095238 50.1385788690476  4.09412202380952 46.8402157738095  2.45647321428571 43.0228794642857  C 0.818824404761905 39.2055431547619  0 35.1979166666667  0 31  C 0 26.8020833333333  0.818824404761905 22.7886904761905  2.45647321428571 18.9598214285714  C 4.09412202380952 15.1309523809524  6.296875 11.8325892857143  9.06473214285714 9.06473214285714  C 11.8325892857143 6.296875  15.1309523809524 4.09412202380952  18.9598214285714 2.45647321428571  Z M 41.8292410714286 35.4285714285714  C 47.3649553571429 35.4285714285714  50.8939732142857 39.1997767857143  52.4162946428571 46.7421875  C 55.8530505952381 42.0137648809524  57.5714285714286 36.766369047619  57.5714285714286 31  C 57.5714285714286 27.4017857142857  56.8679315476191 23.9650297619048  55.4609375 20.6897321428571  C 54.053943452381 17.4144345238095  52.1625744047619 14.5889136904762  49.7868303571429 12.2131696428571  C 47.4110863095238 9.83742559523809  44.5855654761905 7.94605654761904  41.3102678571429 6.5390625  C 38.0349702380952 5.13206845238095  34.5982142857143 4.42857142857143  31 4.42857142857143  C 27.4017857142857 4.42857142857143  23.9650297619048 5.13206845238095  20.6897321428571 6.5390625  C 17.4144345238095 7.94605654761904  14.5889136904762 9.83742559523809  12.2131696428571 12.2131696428571  C 9.8374255952381 14.5889136904762  7.94605654761905 17.4144345238095  6.5390625 20.6897321428571  C 5.13206845238095 23.9650297619048  4.42857142857143 27.4017857142857  4.42857142857143 31  C 4.42857142857143 36.766369047619  6.14694940476191 42.0137648809524  9.58370535714286 46.7421875  C 11.1060267857143 39.1997767857143  14.6350446428571 35.4285714285714  20.1707589285714 35.4285714285714  C 23.1923363095238 38.3809523809524  26.8020833333333 39.8571428571429  31 39.8571428571429  C 35.1979166666667 39.8571428571429  38.8076636904762 38.3809523809524  41.8292410714286 35.4285714285714  Z M 40.3934151785714 33.7505580357143  C 42.98828125 31.1556919642857  44.2857142857143 28.0245535714286  44.2857142857143 24.3571428571429  C 44.2857142857143 20.6897321428571  42.98828125 17.55859375  40.3934151785714 14.9637276785714  C 37.7985491071429 12.3688616071429  34.6674107142857 11.0714285714286  31 11.0714285714286  C 27.3325892857143 11.0714285714286  24.2014508928571 12.3688616071429  21.6065848214286 14.9637276785714  C 19.01171875 17.55859375  17.7142857142857 20.6897321428571  17.7142857142857 24.3571428571429  C 17.7142857142857 28.0245535714286  19.01171875 31.1556919642857  21.6065848214286 33.7505580357143  C 24.2014508928571 36.3454241071429  27.3325892857143 37.6428571428571  31 37.6428571428571  C 34.6674107142857 37.6428571428571  37.7985491071429 36.3454241071429  40.3934151785714 33.7505580357143  Z " fill-rule="nonzero" fill="#d7d7d7" stroke="none" transform="matrix(1 0 0 1 28 31 )" />
  </g>
</svg>