<?xml version="1.0" encoding="utf-8"?>
<svg version="1.1" xmlns:xlink="http://www.w3.org/1999/xlink" width="14px" height="9px" xmlns="http://www.w3.org/2000/svg">
  <g transform="matrix(1 0 0 1 -937 -290 )">
    <path d="M 10.39453125 7.05078125  C 11.4388020833333 6.41796875  12.3072916666667 5.56770833333333  13 4.5  C 12.2083333333333 3.27083333333333  11.2161458333333 2.3515625  10.0234375 1.7421875  C 10.3411458333333 2.28385416666667  10.5 2.86979166666667  10.5 3.5  C 10.5 4.46354166666667  10.1575520833333 5.28776041666667  9.47265625 5.97265625  C 8.78776041666667 6.65755208333333  7.96354166666667 7  7 7  C 6.03645833333333 7  5.21223958333333 6.65755208333333  4.52734375 5.97265625  C 3.84244791666667 5.28776041666667  3.5 4.46354166666667  3.5 3.5  C 3.5 2.86979166666667  3.65885416666667 2.28385416666667  3.9765625 1.7421875  C 2.78385416666667 2.3515625  1.79166666666667 3.27083333333333  1 4.5  C 1.69270833333333 5.56770833333333  2.56119791666667 6.41796875  3.60546875 7.05078125  C 4.64973958333333 7.68359375  5.78125 8  7 8  C 8.21875 8  9.35026041666667 7.68359375  10.39453125 7.05078125  Z M 7.265625 1.765625  C 7.33854166666667 1.69270833333333  7.375 1.60416666666667  7.375 1.5  C 7.375 1.39583333333333  7.33854166666667 1.30729166666667  7.265625 1.234375  C 7.19270833333333 1.16145833333333  7.10416666666667 1.125  7 1.125  C 6.34895833333333 1.125  5.79036458333333 1.35807291666667  5.32421875 1.82421875  C 4.85807291666667 2.29036458333333  4.625 2.84895833333333  4.625 3.5  C 4.625 3.60416666666667  4.66145833333333 3.69270833333333  4.734375 3.765625  C 4.80729166666667 3.83854166666667  4.89583333333333 3.875  5 3.875  C 5.10416666666667 3.875  5.19270833333333 3.83854166666667  5.265625 3.765625  C 5.33854166666667 3.69270833333333  5.375 3.60416666666667  5.375 3.5  C 5.375 3.05208333333333  5.53385416666667 2.66927083333333  5.8515625 2.3515625  C 6.16927083333333 2.03385416666667  6.55208333333333 1.875  7 1.875  C 7.10416666666667 1.875  7.19270833333333 1.83854166666667  7.265625 1.765625  Z M 13.84375 3.9609375  C 13.9479166666667 4.14322916666667  14 4.32291666666667  14 4.5  C 14 4.67708333333333  13.9479166666667 4.85677083333333  13.84375 5.0390625  C 13.1145833333333 6.23697916666667  12.1341145833333 7.19661458333333  10.90234375 7.91796875  C 9.67057291666667 8.63932291666667  8.36979166666667 9  7 9  C 5.63020833333333 9  4.32942708333333 8.63802083333333  3.09765625 7.9140625  C 1.86588541666667 7.19010416666667  0.885416666666667 6.23177083333333  0.15625 5.0390625  C 0.0520833333333333 4.85677083333333  0 4.67708333333333  0 4.5  C 0 4.32291666666667  0.0520833333333333 4.14322916666667  0.15625 3.9609375  C 0.885416666666667 2.76822916666667  1.86588541666667 1.80989583333333  3.09765625 1.0859375  C 4.32942708333333 0.361979166666666  5.63020833333333 0  7 0  C 8.36979166666667 0  9.67057291666667 0.361979166666666  10.90234375 1.0859375  C 12.1341145833333 1.80989583333333  13.1145833333333 2.76822916666667  13.84375 3.9609375  Z " fill-rule="nonzero" fill="#9b9b9b" stroke="none" transform="matrix(1 0 0 1 937 290 )" />
  </g>
</svg>