<?xml version="1.0" encoding="utf-8"?>
<svg version="1.1" xmlns:xlink="http://www.w3.org/1999/xlink" width="20px" height="20px" xmlns="http://www.w3.org/2000/svg">
  <g transform="matrix(1 0 0 1 -45 -108 )">
    <path d="M 19.0651558073654 0  C 19.4617563739377 0  19.7403210576015 0.184659090909092  19.9008498583569 0.553977272727273  C 20.0613786591124 0.942234848484846  19.9952785646837 1.27367424242424  19.7025495750708 1.54829545454545  L 12.7195467422096 8.55113636363637  L 12.7195467422096 19.0909090909091  C 12.7195467422096 19.4886363636364  12.5354107648725 19.7679924242424  12.1671388101983 19.9289772727273  C 12.0443814919736 19.9763257575758  11.9263456090652 20  11.8130311614731 20  C 11.5580736543909 20  11.3456090651558 19.9100378787879  11.1756373937677 19.7301136363636  L 7.54957507082153 16.09375  C 7.37016052880076 15.9138257575758  7.28045325779037 15.7007575757576  7.28045325779037 15.4545454545455  L 7.28045325779037 8.55113636363637  L 0.297450424929179 1.54829545454545  C 0.00472143531633616 1.27367424242424  -0.0613786591123702 0.942234848484846  0.0991501416430595 0.553977272727273  C 0.259678942398489 0.184659090909092  0.538243626062323 0  0.934844192634561 0  L 19.0651558073654 0  Z " fill-rule="nonzero" fill="#797979" stroke="none" transform="matrix(1 0 0 1 45 108 )" />
  </g>
</svg>