<?xml version="1.0" encoding="utf-8"?>
<svg version="1.1" xmlns:xlink="http://www.w3.org/1999/xlink" width="26px" height="23px" xmlns="http://www.w3.org/2000/svg">
  <g transform="matrix(1 0 0 1 -22 -315 )">
    <path d="M 15.4036458333333 20.5784970238095  C 15.6067708333333 20.4244791666667  15.7083333333333 20.2048611111111  15.7083333333333 19.9196428571429  L 15.7083333333333 18.9613095238095  L 15.7083333333333 10.952380952381  L 15.7083333333333 7.66666666666667  L 10.2916666666667 7.66666666666667  L 10.2916666666667 10.952380952381  L 10.2916666666667 18.9613095238095  L 10.2916666666667 19.9196428571429  C 10.2916666666667 20.2048611111111  10.3932291666667 20.4244791666667  10.5963541666667 20.5784970238095  C 10.7994791666667 20.7325148809524  11.0590277777778 20.8095238095238  11.375 20.8095238095238  L 14.625 20.8095238095238  C 14.9409722222222 20.8095238095238  15.2005208333333 20.7325148809524  15.4036458333333 20.5784970238095  Z M 6.83854166666667 4.99702380952381  C 7.15451388888889 5.31646825396825  7.53819444444444 5.47619047619048  7.98958333333333 5.47619047619048  L 11.2903645833333 5.47619047619048  L 9.15755208333333 2.72098214285714  C 8.86414930555556 2.36731150793651  8.47482638888889 2.19047619047619  7.98958333333333 2.19047619047619  C 7.53819444444444 2.19047619047619  7.15451388888889 2.35019841269841  6.83854166666667 2.66964285714286  C 6.52256944444444 2.9890873015873  6.36458333333333 3.37698412698413  6.36458333333333 3.83333333333333  C 6.36458333333333 4.28968253968254  6.52256944444444 4.67757936507936  6.83854166666667 4.99702380952381  Z M 19.1614583333333 4.99702380952381  C 19.4774305555556 4.67757936507936  19.6354166666667 4.28968253968254  19.6354166666667 3.83333333333333  C 19.6354166666667 3.37698412698413  19.4774305555556 2.9890873015873  19.1614583333333 2.66964285714286  C 18.8454861111111 2.35019841269841  18.4618055555556 2.19047619047619  18.0104166666667 2.19047619047619  C 17.5251736111111 2.19047619047619  17.1358506944444 2.36731150793651  16.8424479166667 2.72098214285714  L 14.7265625 5.47619047619048  L 18.0104166666667 5.47619047619048  C 18.4618055555556 5.47619047619048  18.8454861111111 5.31646825396825  19.1614583333333 4.99702380952381  Z M 25.84765625 7.82068452380952  C 25.94921875 7.9233630952381  26 8.05456349206349  26 8.21428571428571  L 26 13.6904761904762  C 26 13.8501984126984  25.94921875 13.9813988095238  25.84765625 14.0840773809524  C 25.74609375 14.186755952381  25.6163194444444 14.2380952380952  25.4583333333333 14.2380952380952  L 23.8333333333333 14.2380952380952  L 23.8333333333333 21.3571428571429  C 23.8333333333333 21.8134920634921  23.6753472222222 22.2013888888889  23.359375 22.5208333333333  C 23.0434027777778 22.8402777777778  22.6597222222222 23  22.2083333333333 23  L 3.79166666666667 23  C 3.34027777777778 23  2.95659722222222 22.8402777777778  2.640625 22.5208333333333  C 2.32465277777778 22.2013888888889  2.16666666666667 21.8134920634921  2.16666666666667 21.3571428571429  L 2.16666666666667 14.2380952380952  L 0.541666666666667 14.2380952380952  C 0.383680555555556 14.2380952380952  0.25390625 14.186755952381  0.15234375 14.0840773809524  C 0.05078125 13.9813988095238  0 13.8501984126984  0 13.6904761904762  L 0 8.21428571428571  C 0 8.05456349206349  0.05078125 7.9233630952381  0.15234375 7.82068452380952  C 0.25390625 7.71800595238095  0.383680555555556 7.66666666666667  0.541666666666667 7.66666666666667  L 7.98958333333333 7.66666666666667  C 6.94010416666667 7.66666666666667  6.04578993055556 7.29303075396825  5.306640625 6.54575892857143  C 4.56749131944444 5.7984871031746  4.19791666666667 4.89434523809524  4.19791666666667 3.83333333333333  C 4.19791666666667 2.77232142857143  4.56749131944444 1.86817956349206  5.306640625 1.12090773809524  C 6.04578993055556 0.373635912698412  6.94010416666667 0  7.98958333333333 0  C 9.19704861111111 0  10.1449652777778 0.439236111111108  10.8333333333333 1.31770833333333  L 13 4.14136904761905  L 15.1666666666667 1.31770833333333  C 15.8550347222222 0.439236111111108  16.8029513888889 0  18.0104166666667 0  C 19.0598958333333 0  19.9542100694444 0.373635912698412  20.693359375 1.12090773809524  C 21.4325086805556 1.86817956349206  21.8020833333333 2.77232142857143  21.8020833333333 3.83333333333333  C 21.8020833333333 4.89434523809524  21.4325086805556 5.7984871031746  20.693359375 6.54575892857143  C 19.9542100694444 7.29303075396825  19.0598958333333 7.66666666666667  18.0104166666667 7.66666666666667  L 25.4583333333333 7.66666666666667  C 25.6163194444444 7.66666666666667  25.74609375 7.71800595238095  25.84765625 7.82068452380952  Z " fill-rule="nonzero" fill="#9b9b9b" stroke="none" transform="matrix(1 0 0 1 22 315 )" />
  </g>
</svg>