<?xml version="1.0" encoding="utf-8"?>
<svg version="1.1" xmlns:xlink="http://www.w3.org/1999/xlink" width="24px" height="19px" xmlns="http://www.w3.org/2000/svg">
  <g transform="matrix(1 0 0 1 -84 -122 )">
    <path d="M 7.3 3.859375  C 7.76666666666667 4.32118055555555  8 4.88194444444444  8 5.54166666666667  C 8 6.20138888888889  7.76666666666667 6.76215277777778  7.3 7.22395833333333  C 6.83333333333333 7.68576388888889  6.26666666666667 7.91666666666667  5.6 7.91666666666667  C 4.93333333333333 7.91666666666667  4.36666666666667 7.68576388888889  3.9 7.22395833333333  C 3.43333333333333 6.76215277777778  3.2 6.20138888888889  3.2 5.54166666666667  C 3.2 4.88194444444444  3.43333333333333 4.32118055555555  3.9 3.859375  C 4.36666666666667 3.39756944444444  4.93333333333333 3.16666666666667  5.6 3.16666666666667  C 6.26666666666667 3.16666666666667  6.83333333333333 3.39756944444444  7.3 3.859375  Z M 15.6 5.14583333333333  L 20.8 10.2916666666667  L 20.8 15.8333333333333  L 3.2 15.8333333333333  L 3.2 13.4583333333333  L 7.2 9.5  L 9.2 11.4791666666667  L 15.6 5.14583333333333  Z M 22.28125 1.70084635416667  C 22.2020833333333 1.62250434027778  22.1083333333333 1.58333333333333  22 1.58333333333333  L 2 1.58333333333333  C 1.89166666666667 1.58333333333333  1.79791666666667 1.62250434027778  1.71875 1.70084635416667  C 1.63958333333333 1.77918836805555  1.6 1.87196180555555  2 1.97916666666667  L 2 17.0208333333333  C 1.6 17.1280381944444  1.63958333333333 17.2208116319444  1.71875 17.2991536458333  C 1.79791666666667 17.3774956597222  1.89166666666667 17.4166666666667  2 17.4166666666667  L 22 17.4166666666667  C 22.1083333333333 17.4166666666667  22.2020833333333 17.3774956597222  22.28125 17.2991536458333  C 22.3604166666667 17.2208116319444  22.4 17.1280381944444  22 17.0208333333333  L 22 1.97916666666667  C 22.4 1.87196180555555  22.3604166666667 1.77918836805555  22.28125 1.70084635416667  Z M 23.4125 0.581380208333334  C 23.8041666666667 0.968967013888888  24 1.43489583333333  24 1.97916666666667  L 24 17.0208333333333  C 24 17.5651041666667  23.8041666666667 18.0310329861111  23.4125 18.4186197916667  C 23.0208333333333 18.8062065972222  22.55 19  22 19  L 2 19  C 1.45 19  0.979166666666667 18.8062065972222  0.5875 18.4186197916667  C 0.195833333333333 18.0310329861111  0 17.5651041666667  0 17.0208333333333  L 0 1.97916666666667  C 0 1.43489583333333  0.195833333333333 0.968967013888888  0.5875 0.581380208333334  C 0.979166666666667 0.193793402777776  1.45 0  2 0  L 22 0  C 22.55 0  23.0208333333333 0.193793402777776  23.4125 0.581380208333334  Z " fill-rule="nonzero" fill="#000000" stroke="none" transform="matrix(1 0 0 1 84 122 )" />
  </g>
</svg>