<?xml version="1.0" encoding="utf-8"?>
<svg version="1.1" xmlns:xlink="http://www.w3.org/1999/xlink" width="23px" height="22px" xmlns="http://www.w3.org/2000/svg">
  <g transform="matrix(1 0 0 1 -24 -204 )">
    <path d="M 3.406875 18.068359375  C 3.58895833333333 17.8917100694444  3.68 17.6744791666667  3.68 17.4166666666667  C 3.68 17.1684027777778  3.58895833333333 16.9535590277778  3.406875 16.7721354166667  C 3.22479166666667 16.5907118055556  3.00916666666667 16.5  2.76 16.5  C 2.50125 16.5  2.28322916666667 16.5907118055556  2.1059375 16.7721354166667  C 1.92864583333333 16.9535590277778  1.84 17.1684027777778  1.84 17.4166666666667  C 1.84 17.6744791666667  1.92864583333333 17.8917100694444  2.1059375 18.068359375  C 2.28322916666667 18.2450086805556  2.50125 18.3333333333333  2.76 18.3333333333333  C 3.00916666666667 18.3333333333333  3.22479166666667 18.2450086805556  3.406875 18.068359375  Z M 5.706875 9.43880208333333  C 5.88895833333333 9.62022569444444  5.98 9.83506944444444  5.98 10.0833333333333  L 5.98 19.25  C 5.98 19.4982638888889  5.88895833333333 19.7131076388889  5.706875 19.89453125  C 5.52479166666667 20.0759548611111  5.30916666666667 20.1666666666667  5.06 20.1666666666667  L 0.92 20.1666666666667  C 0.670833333333333 20.1666666666667  0.455208333333333 20.0759548611111  0.273125 19.89453125  C 0.0910416666666667 19.7131076388889  0 19.4982638888889  0 19.25  L 0 10.0833333333333  C 0 9.83506944444444  0.0910416666666667 9.62022569444444  0.273125 9.43880208333333  C 0.455208333333333 9.25737847222222  0.670833333333333 9.16666666666667  0.92 9.16666666666667  L 5.06 9.16666666666667  C 5.30916666666667 9.16666666666667  5.52479166666667 9.25737847222222  5.706875 9.43880208333333  Z M 22.180625 8.14973958333333  C 22.726875 8.69401041666667  23 9.33854166666667  23 10.0833333333333  C 23 10.9045138888889  22.7364583333333 11.6158854166667  22.209375 12.2174479166667  C 22.353125 12.6375868055556  22.425 13.0004340277778  22.425 13.3059895833333  C 22.45375 14.0316840277778  22.2477083333333 14.6857638888889  21.806875 15.2682291666667  C 21.9697916666667 15.8029513888889  21.9697916666667 16.3615451388889  21.806875 16.9440104166667  C 21.663125 17.48828125  21.404375 17.9370659722222  21.030625 18.2903645833333  C 21.116875 19.3598090277778  20.8820833333333 20.2239583333333  20.32625 20.8828125  C 19.7129166666667 21.6085069444444  18.7689583333333 21.9809027777778  17.494375 22  L 16.976875 22  L 15.884375 22  L 15.64 22  C 15.0075 22  14.3175 21.9259982638889  13.57 21.7779947916667  C 12.8225 21.6299913194444  12.2403125 21.4915364583333  11.8234375 21.3626302083333  C 11.4065625 21.2337239583333  10.8291666666667 21.0451388888889  10.09125 20.796875  C 8.9125 20.3862847222222  8.15541666666667 20.1762152777778  7.82 20.1666666666667  C 7.57083333333333 20.1571180555556  7.35520833333333 20.0640190972222  7.173125 19.8873697916667  C 6.99104166666667 19.7107204861111  6.9 19.4982638888889  6.9 19.25  L 6.9 10.0690104166667  C 6.9 9.83029513888889  6.98625 9.62261284722222  7.15875 9.44596354166667  C 7.33125 9.26931423611111  7.53729166666667 9.17144097222222  7.776875 9.15234375  C 8.006875 9.13324652777778  8.37104166666667 8.8515625  8.869375 8.30729166666667  C 9.36770833333333 7.76302083333333  9.85166666666667 7.18532986111111  10.32125 6.57421875  C 10.9729166666667 5.74348958333333  11.456875 5.17057291666667  11.773125 4.85546875  C 11.945625 4.68359375  12.0941666666667 4.45442708333333  12.21875 4.16796875  C 12.3433333333333 3.88151041666667  12.4271875 3.64995659722222  12.4703125 3.47330729166667  C 12.5134375 3.29665798611111  12.578125 3.0078125  12.664375 2.60677083333333  C 12.7314583333333 2.234375  12.7913541666667 1.94314236111111  12.8440625 1.73307291666667  C 12.8967708333333 1.52300347222222  12.9902083333333 1.27473958333333  13.124375 0.98828125  C 13.2585416666667 0.701822916666666  13.4214583333333 0.463107638888889  13.613125 0.272135416666666  C 13.7952083333333 0.0907118055555545  14.0108333333333 0  14.26 0  C 14.7008333333333 0  15.0961458333333 0.0501302083333341  15.4459375 0.150390625  C 15.7957291666667 0.250651041666666  16.0832291666667 0.374782986111109  16.3084375 0.522786458333334  C 16.5336458333333 0.670789930555554  16.7253125 0.864149305555554  16.8834375 1.10286458333333  C 17.0415625 1.34157986111111  17.1565625 1.55642361111111  17.2284375 1.74739583333333  C 17.3003125 1.93836805555555  17.3578125 2.17708333333333  17.4009375 2.46354166666667  C 17.4440625 2.75  17.4680208333333 2.96484375  17.4728125 3.10807291666667  C 17.4776041666667 3.25130208333333  17.48 3.4375  17.48 3.66666666666667  C 17.48 4.02951388888889  17.4344791666667 4.39236111111111  17.3434375 4.75520833333333  C 17.2523958333333 5.11805555555555  17.1613541666667 5.40451388888889  17.0703125 5.61458333333333  C 16.9792708333333 5.82465277777778  16.8475 6.09201388888889  16.675 6.41666666666667  C 16.64625 6.47395833333333  16.5983333333333 6.55989583333333  16.53125 6.67447916666667  C 16.4641666666667 6.7890625  16.4114583333333 6.89409722222222  16.373125 6.98958333333333  C 16.3347916666667 7.08506944444444  16.2964583333333 7.19965277777778  16.258125 7.33333333333333  L 20.24 7.33333333333333  C 20.9875 7.33333333333333  21.634375 7.60546875  22.180625 8.14973958333333  Z " fill-rule="nonzero" fill="#9b9b9b" stroke="none" transform="matrix(1 0 0 1 24 204 )" />
  </g>
</svg>