<?xml version="1.0" encoding="utf-8"?>
<svg version="1.1" xmlns:xlink="http://www.w3.org/1999/xlink" width="26px" height="18px" xmlns="http://www.w3.org/2000/svg">
  <g transform="matrix(1 0 0 1 -24 -47 )">
    <path d="M 23.4 0  L 0 0  L 0 18  L 26 18  L 25.9999999840263 2.57142857142857  L 23.3999998034973 2.57142644777417  L 23.4 0  Z M 23 3.85714285714286  L 24.7 3.85714359496891  L 24.6999986128455 16.7142857142857  L 1.3 16.7142857142857  L 1.3 1.28571428571429  L 22 1.28571428571429  L 22 15.4286636745723  L 23 15.4285714285714  L 23 3.85714285714286  Z M 10.4 14  L 10.4 15.4285714285714  L 20.8 15.4285714285714  L 20.8 14  L 10.4 14  Z M 20.8 11.5714285714286  L 10.4 11.5714285714286  L 10.4 12.8571428571429  L 20.8 12.8571428571429  L 20.8 11.5714285714286  Z M 9.1 15.4285714285714  L 9.1 6.42857142857143  L 2.6 6.42857142857143  L 2.6 15.4285714285714  L 9.1 15.4285714285714  Z M 10.4 8  L 20.8 8  L 20.8 6.42857142857143  L 10.4 6.42857142857143  L 10.4 8  Z M 2.6 2.57142857142857  L 2.6 5.14285714285714  L 20.8 5.14285714285714  L 20.8 2.57142857142857  L 2.6 2.57142857142857  Z M 20.8 10  L 20.8 9  L 10.4 9  L 10.4 10  L 20.8 10  Z " fill-rule="nonzero" fill="#666666" stroke="none" transform="matrix(1 0 0 1 24 47 )" />
  </g>
</svg>