<?xml version="1.0" encoding="utf-8"?>
<svg version="1.1" xmlns:xlink="http://www.w3.org/1999/xlink" width="14px" height="14px" xmlns="http://www.w3.org/2000/svg">
  <g transform="matrix(1 0 0 1 -851 -557 )">
    <path d="M 14 7  C 14 3.1325  10.864 0  6.9965 0  C 3.129 0  0 3.1325  0 7  C 0 10.8675  3.129 14  6.9965 14  C 10.864 14  14 10.8675  14 7  Z M 12.6 7  C 12.6 10.094  10.094 12.6  7 12.6  C 3.906 12.6  1.4 10.094  1.4 7  C 1.4 3.906  3.906 1.4  7 1.4  C 10.094 1.4  12.6 3.906  12.6 7  Z M 8.4 5.25  C 8.4 5.831  8.869 6.3  9.45 6.3  C 10.031 6.3  10.5 5.831  10.5 5.25  C 10.5 4.669  10.031 4.2  9.45 4.2  C 8.869 4.2  8.4 4.669  8.4 5.25  Z M 3.5 5.25  C 3.5 5.831  3.969 6.3  4.55 6.3  C 5.131 6.3  5.6 5.831  5.6 5.25  C 5.6 4.669  5.131 4.2  4.55 4.2  C 3.969 4.2  3.5 4.669  3.5 5.25  Z M 3.4265 8.4  C 3.9865 9.8315  5.369 10.85  7 10.85  C 8.631 10.85  10.0135 9.8315  10.5735 8.4  L 3.4265 8.4  Z " fill-rule="nonzero" fill="#ffffff" stroke="none" transform="matrix(1 0 0 1 851 557 )" />
  </g>
</svg>