<?xml version="1.0" encoding="utf-8"?>
<svg version="1.1" xmlns:xlink="http://www.w3.org/1999/xlink" width="51px" height="51px" xmlns="http://www.w3.org/2000/svg">
  <g transform="matrix(1 0 0 1 -14 -13 )">
    <path d="M 15.5959821428571 2.02064732142857  C 18.7455357142857 0.673549107142857  22.046875 0  25.5 0  C 28.953125 0  32.2544642857143 0.673549107142857  35.4040178571429 2.02064732142857  C 38.5535714285714 3.36774553571428  41.2667410714286 5.1796875  43.5435267857143 7.45647321428571  C 45.8203125 9.73325892857143  47.6322544642857 12.4464285714286  48.9793526785714 15.5959821428571  C 50.3264508928571 18.7455357142857  51 22.046875  51 25.5  C 51 28.9341517857143  50.3311941964286 32.2260044642857  48.9935825892857 35.3755580357143  C 47.6559709821429 38.5251116071429  45.8487723214286 41.23828125  43.5719866071429 43.5150669642857  C 41.2952008928571 45.7918526785714  38.58203125 47.6085379464286  35.4324776785714 48.9651227678571  C 32.2829241071429 50.3217075892857  28.9720982142857 51  25.5 51  C 22.0279017857143 51  18.7170758928571 50.3264508928571  15.5675223214286 48.9793526785714  C 12.41796875 47.6322544642857  9.70954241071429 45.8155691964286  7.44224330357143 43.529296875  C 5.17494419642857 41.2430245535714  3.36774553571429 38.5298549107143  2.02064732142857 35.3897879464286  C 0.673549107142857 32.2497209821429  0 28.953125  0 25.5  C 0 22.046875  0.673549107142857 18.7455357142857  2.02064732142857 15.5959821428571  C 3.36774553571429 12.4464285714286  5.1796875 9.73325892857143  7.45647321428571 7.45647321428571  C 9.73325892857143 5.1796875  12.4464285714286 3.36774553571428  15.5959821428571 2.02064732142857  Z M 34.4079241071429 29.1428571428571  C 38.9614955357143 29.1428571428571  41.8643973214286 32.2449776785714  43.1166294642857 38.44921875  C 45.9436383928571 34.5597098214286  47.3571428571429 30.2433035714286  47.3571428571429 25.5  C 47.3571428571429 22.5401785714286  46.7784598214286 19.7131696428571  45.62109375 17.0189732142857  C 44.4637276785714 14.3247767857143  42.9079241071429 12.0005580357143  40.9536830357143 10.0463169642857  C 38.9994419642857 8.09207589285714  36.6752232142857 6.53627232142857  33.9810267857143 5.37890625  C 31.2868303571429 4.22154017857143  28.4598214285714 3.64285714285714  25.5 3.64285714285714  C 22.5401785714286 3.64285714285714  19.7131696428571 4.22154017857143  17.0189732142857 5.37890625  C 14.3247767857143 6.53627232142857  12.0005580357143 8.09207589285714  10.0463169642857 10.0463169642857  C 8.09207589285714 12.0005580357143  6.53627232142857 14.3247767857143  5.37890625 17.0189732142857  C 4.22154017857143 19.7131696428571  3.64285714285714 22.5401785714286  3.64285714285714 25.5  C 3.64285714285714 30.2433035714286  5.05636160714286 34.5597098214286  7.88337053571429 38.44921875  C 9.13560267857143 32.2449776785714  12.0385044642857 29.1428571428571  16.5920758928571 29.1428571428571  C 19.0775669642857 31.5714285714286  22.046875 32.7857142857143  25.5 32.7857142857143  C 28.953125 32.7857142857143  31.9224330357143 31.5714285714286  34.4079241071429 29.1428571428571  Z M 33.2268415178571 27.7625558035714  C 35.361328125 25.6280691964286  36.4285714285714 23.0524553571429  36.4285714285714 20.0357142857143  C 36.4285714285714 17.0189732142857  35.361328125 14.443359375  33.2268415178571 12.3088727678571  C 31.0923549107143 10.1743861607143  28.5167410714286 9.10714285714286  25.5 9.10714285714286  C 22.4832589285714 9.10714285714286  19.9076450892857 10.1743861607143  17.7731584821429 12.3088727678571  C 15.638671875 14.443359375  14.5714285714286 17.0189732142857  14.5714285714286 20.0357142857143  C 14.5714285714286 23.0524553571429  15.638671875 25.6280691964286  17.7731584821429 27.7625558035714  C 19.9076450892857 29.8970424107143  22.4832589285714 30.9642857142857  25.5 30.9642857142857  C 28.5167410714286 30.9642857142857  31.0923549107143 29.8970424107143  33.2268415178571 27.7625558035714  Z " fill-rule="nonzero" fill="#b8b8b8" stroke="none" transform="matrix(1 0 0 1 14 13 )" />
  </g>
</svg>