<?xml version="1.0" encoding="utf-8"?>
<svg version="1.1" xmlns:xlink="http://www.w3.org/1999/xlink" width="16px" height="16px" xmlns="http://www.w3.org/2000/svg">
  <g transform="matrix(1 0 0 1 -970 -25 )">
    <path d="M 16 1.6  C 16 0.716  15.284 0  14.4 0  L 1.6 0  C 0.716 0  0.00799999999999983 0.716  0 1.6  L 0 16  L 3.2 12.8  L 14.4 12.8  C 15.284 12.8  16 12.084  16 11.2  L 16 1.6  Z M 12.8 8  L 12.8 9.6  L 3.2 9.6  L 3.2 8  L 12.8 8  Z M 12.8 5.6  L 12.8 7.2  L 3.2 7.2  L 3.2 5.6  L 12.8 5.6  Z M 12.8 3.2  L 12.8 4.8  L 3.2 4.8  L 3.2 3.2  L 12.8 3.2  Z " fill-rule="nonzero" fill="#b8b8b8" stroke="none" transform="matrix(1 0 0 1 970 25 )" />
  </g>
</svg>