<?xml version="1.0" encoding="utf-8"?>
<svg version="1.1" xmlns:xlink="http://www.w3.org/1999/xlink" width="8px" height="16px" xmlns="http://www.w3.org/2000/svg">
  <g transform="matrix(1 0 0 1 -885 -556 )">
    <path d="M 8 3.63636363636364  L 6.90909090909091 3.63636363636364  L 6.90909090909091 12  C 6.90909090909091 13.6072727272727  5.60727272727273 14.9090909090909  4 14.9090909090909  C 2.39272727272727 14.9090909090909  1.09090909090909 13.6072727272727  1.09090909090909 12  L 1.09090909090909 2.90909090909091  C 1.09090909090909 1.90545454545455  1.90545454545455 1.09090909090909  2.90909090909091 1.09090909090909  C 3.91272727272727 1.09090909090909  4.72727272727273 1.90545454545455  4.72727272727273 2.90909090909091  L 4.72727272727273 10.5454545454545  C 4.72727272727273 10.9454545454545  4.40363636363636 11.2727272727273  4 11.2727272727273  C 3.59636363636364 11.2727272727273  3.27272727272727 10.9454545454545  3.27272727272727 10.5454545454545  L 3.27272727272727 3.63636363636364  L 2.18181818181818 3.63636363636364  L 2.18181818181818 10.5454545454545  C 2.18181818181818 11.5490909090909  2.99636363636364 12.3636363636364  4 12.3636363636364  C 5.00363636363636 12.3636363636364  5.81818181818182 11.5490909090909  5.81818181818182 10.5454545454545  L 5.81818181818182 2.90909090909091  C 5.81818181818182 1.30181818181818  4.51636363636364 0  2.90909090909091 0  C 1.30181818181818 0  0 1.30181818181818  0 2.90909090909091  L 0 12  C 0 14.2109090909091  1.79272727272727 16  4 16  C 6.20727272727273 16  8 14.2109090909091  8 12  L 8 3.63636363636364  Z " fill-rule="nonzero" fill="#ffffff" stroke="none" transform="matrix(1 0 0 1 885 556 )" />
  </g>
</svg>