<?xml version="1.0" encoding="utf-8"?>
<svg version="1.1" xmlns:xlink="http://www.w3.org/1999/xlink" width="18px" height="16px" xmlns="http://www.w3.org/2000/svg">
  <g transform="matrix(1 0 0 1 -370 -261 )">
    <path d="M 2.40685096153846 6.6875  C 3.08834134615385 7.27083333333333  3.9375 7.66319444444444  4.95432692307692 7.86458333333333  C 4.42067307692308 6.73958333333333  4.15384615384615 5.45138888888889  4.15384615384615 4  L 1.38461538461538 4  L 1.38461538461538 5  C 1.38461538461538 5.54166666666667  1.72536057692308 6.10416666666667  2.40685096153846 6.6875  Z M 15.5931490384615 6.6875  C 16.2746394230769 6.10416666666667  16.6153846153846 5.54166666666667  16.6153846153846 5  L 16.6153846153846 4  L 13.8461538461538 4  C 13.8461538461538 5.45138888888889  13.5793269230769 6.73958333333333  13.0456730769231 7.86458333333333  C 14.0625 7.66319444444444  14.9116586538462 7.27083333333333  15.5931490384615 6.6875  Z M 17.6971153846154 2.95833333333333  C 17.8990384615385 3.15277777777778  18 3.38888888888889  18 3.66666666666667  L 18 5  C 18 5.49305555555556  17.8503605769231 5.98958333333333  17.5510817307692 6.48958333333333  C 17.2518028846154 6.98958333333333  16.8479567307692 7.44097222222222  16.3395432692308 7.84375  C 15.8311298076923 8.24652777777778  15.2073317307692 8.58506944444444  14.4681490384615 8.859375  C 13.7289663461538 9.13368055555555  12.9519230769231 9.28819444444444  12.1370192307692 9.32291666666667  C 11.8341346153846 9.69791666666667  11.4915865384615 10.0277777777778  11.109375 10.3125  C 10.8353365384615 10.5486111111111  10.6460336538462 10.8003472222222  10.5414663461538 11.0677083333333  C 10.4368990384615 11.3350694444444  10.3846153846154 11.6458333333333  10.3846153846154 12  C 10.3846153846154 12.375  10.4945913461538 12.6909722222222  10.7145432692308 12.9479166666667  C 10.9344951923077 13.2048611111111  11.2860576923077 13.3333333333333  11.7692307692308 13.3333333333333  C 12.3100961538462 13.3333333333333  12.7914663461538 13.4913194444444  13.2133413461538 13.8072916666667  C 13.6352163461538 14.1232638888889  13.8461538461538 14.5208333333333  13.8461538461538 15  L 13.8461538461538 15.6666666666667  C 13.8461538461538 15.7638888888889  13.8137019230769 15.84375  13.7487980769231 15.90625  C 13.6838942307692 15.96875  13.6009615384615 16  13.5 16  L 4.5 16  C 4.39903846153846 16  4.31610576923077 15.96875  4.25120192307692 15.90625  C 4.18629807692308 15.84375  4.15384615384615 15.7638888888889  4.15384615384615 15.6666666666667  L 4.15384615384615 15  C 4.15384615384615 14.5208333333333  4.36478365384615 14.1232638888889  4.78665865384615 13.8072916666667  C 5.20853365384615 13.4913194444444  5.68990384615385 13.3333333333333  6.23076923076923 13.3333333333333  C 6.71394230769231 13.3333333333333  7.06550480769231 13.2048611111111  7.28545673076923 12.9479166666667  C 7.50540865384615 12.6909722222222  7.61538461538462 12.375  7.61538461538462 12  C 7.61538461538462 11.6458333333333  7.56310096153846 11.3350694444444  7.45853365384615 11.0677083333333  C 7.35396634615385 10.8003472222222  7.16466346153846 10.5486111111111  6.890625 10.3125  C 6.50841346153846 10.0277777777778  6.16586538461539 9.69791666666667  5.86298076923077 9.32291666666667  C 5.04807692307692 9.28819444444444  4.27103365384615 9.13368055555555  3.53185096153846 8.859375  C 2.79266826923077 8.58506944444444  2.16887019230769 8.24652777777778  1.66045673076923 7.84375  C 1.15204326923077 7.44097222222222  0.748197115384615 6.98958333333333  0.448918269230769 6.48958333333333  C 0.149639423076923 5.98958333333333  0 5.49305555555556  0 5  L 0 3.66666666666667  C 0 3.38888888888889  0.100961538461538 3.15277777777778  0.302884615384615 2.95833333333333  C 0.504807692307692 2.76388888888889  0.75 2.66666666666667  1.03846153846154 2.66666666666667  L 4.15384615384615 2.66666666666667  L 4.15384615384615 1.66666666666667  C 4.15384615384615 1.20833333333333  4.32331730769231 0.815972222222221  4.66225961538462 0.489583333333334  C 5.00120192307692 0.163194444444443  5.40865384615385 0  5.88461538461539 0  L 12.1153846153846 0  C 12.5913461538462 0  12.9987980769231 0.163194444444443  13.3377403846154 0.489583333333334  C 13.6766826923077 0.815972222222221  13.8461538461538 1.20833333333333  13.8461538461538 1.66666666666667  L 13.8461538461538 2.66666666666667  L 16.9615384615385 2.66666666666667  C 17.25 2.66666666666667  17.4951923076923 2.76388888888889  17.6971153846154 2.95833333333333  Z " fill-rule="nonzero" fill="#d7d7d7" stroke="none" transform="matrix(1 0 0 1 370 261 )" />
  </g>
</svg>