<?xml version="1.0" encoding="utf-8"?>
<svg version="1.1" xmlns:xlink="http://www.w3.org/1999/xlink" width="85px" height="85px" xmlns="http://www.w3.org/2000/svg">
  <g transform="matrix(1 0 0 1 -374 -265 )">
    <path d="M 59.3861607142857 74.7781808035714  C 64.6037946428572 72.0112537202381  68.8885788690476 68.2561383928571  72.2405133928572 63.5128348214286  C 71.5448288690476 58.6114211309524  70.161365327381 54.5400855654762  68.0901227678572 51.298828125  C 66.0188802083333 48.0575706845238  63.1017485119048 46.1839657738095  59.3387276785714 45.6780133928571  C 57.2200520833333 48.0180431547619  54.6981956845238 49.8442150297619  51.7731584821429 51.1565290178571  C 48.8481212797619 52.4688430059524  45.757068452381 53.125  42.5 53.125  C 39.242931547619 53.125  36.1518787202381 52.4688430059524  33.2268415178571 51.1565290178571  C 30.3018043154762 49.8442150297619  27.7799479166667 48.0180431547619  25.6612723214286 45.6780133928571  C 21.8982514880952 46.1839657738095  18.9811197916667 48.0575706845238  16.9098772321429 51.298828125  C 14.838634672619 54.5400855654762  13.4551711309524 58.6114211309524  12.7594866071429 63.5128348214286  C 16.1114211309524 68.2561383928571  20.3962053571429 72.0112537202381  25.6138392857143 74.7781808035714  C 30.8314732142857 77.5451078869048  36.460193452381 78.9285714285714  42.5 78.9285714285714  C 48.5398065476191 78.9285714285714  54.1685267857143 77.5451078869048  59.3861607142857 74.7781808035714  Z M 55.3780691964286 43.2352120535714  C 58.935546875 39.677734375  60.7142857142857 35.3850446428571  60.7142857142857 30.3571428571429  C 60.7142857142857 25.3292410714286  58.935546875 21.0365513392857  55.3780691964286 17.4790736607143  C 51.8205915178571 13.9215959821429  47.5279017857143 12.1428571428571  42.5 12.1428571428571  C 37.4720982142857 12.1428571428571  33.1794084821429 13.9215959821429  29.6219308035714 17.4790736607143  C 26.064453125 21.0365513392857  24.2857142857143 25.3292410714286  24.2857142857143 30.3571428571429  C 24.2857142857143 35.3850446428571  26.064453125 39.677734375  29.6219308035714 43.2352120535714  C 33.1794084821429 46.7926897321429  37.4720982142857 48.5714285714286  42.5 48.5714285714286  C 47.5279017857143 48.5714285714286  51.8205915178571 46.7926897321429  55.3780691964286 43.2352120535714  Z M 81.6322544642857 25.9933035714286  C 83.8774181547619 31.2425595238095  85 36.7447916666667  85 42.5  C 85 48.2552083333333  83.8774181547619 53.7495349702381  81.6322544642857 58.9829799107143  C 79.3870907738095 64.2164248511905  76.3750930059524 68.7383742559524  72.5962611607143 72.548828125  C 68.8174293154762 76.3592819940476  64.3033854166667 79.3870907738095  59.0541294642857 81.6322544642857  C 53.8048735119048 83.8774181547619  48.2868303571429 85  42.5 85  C 36.7447916666667 85  31.2425595238095 83.8774181547619  25.9933035714286 81.6322544642857  C 20.7440476190476 79.3870907738095  16.2220982142857 76.3671875  12.4274553571429 72.5725446428571  C 8.6328125 68.7779017857143  5.61290922619048 64.2559523809524  3.36774553571429 59.0066964285714  C 1.1225818452381 53.7574404761905  0 48.2552083333333  0 42.5  C 0 36.7447916666667  1.1225818452381 31.2425595238095  3.36774553571429 25.9933035714286  C 5.61290922619048 20.7440476190476  8.6328125 16.2220982142857  12.4274553571429 12.4274553571429  C 16.2220982142857 8.6328125  20.7440476190476 5.61290922619047  25.9933035714286 3.36774553571428  C 31.2425595238095 1.12258184523809  36.7447916666667 0  42.5 0  C 48.2552083333333 0  53.7574404761905 1.12258184523809  59.0066964285714 3.36774553571428  C 64.2559523809524 5.61290922619047  68.7779017857143 8.6328125  72.5725446428572 12.4274553571429  C 76.3671875 16.2220982142857  79.3870907738095 20.7440476190476  81.6322544642857 25.9933035714286  Z " fill-rule="nonzero" fill="#f2f2f2" stroke="none" transform="matrix(1 0 0 1 374 265 )" />
  </g>
</svg>