<?xml version="1.0" encoding="utf-8"?>
<svg version="1.1" xmlns:xlink="http://www.w3.org/1999/xlink" width="14px" height="25px" xmlns="http://www.w3.org/2000/svg">
  <g transform="matrix(1 0 0 1 -354 -633 )">
    <path d="M 13.7594501718213 11.9238476953908  C 13.9198167239404 12.0908483633935  14 12.2828991315965  14 12.5  C 14 12.7171008684035  13.9198167239404 12.9091516366065  13.7594501718213 13.0761523046092  L 2.54982817869416 24.749498997996  C 2.38946162657503 24.9164996659987  2.20504009163803 25  1.99656357388316 25  C 1.78808705612829 25  1.60366552119129 24.9164996659987  1.44329896907216 24.749498997996  L 0.240549828178694 23.496993987976  C 0.0801832760595648 23.3299933199733  0 23.1379425517702  0 22.9208416833667  C 0 22.7037408149633  0.0801832760595648 22.5116900467602  0.240549828178694 22.3446893787575  L 9.69415807560137 12.5  L 0.240549828178694 2.65531062124249  C 0.0801832760595648 2.48830995323981  0 2.29625918503674  0 2.07915831663327  C 0 1.86205744822979  0.0801832760595648 1.67000668002672  0.240549828178694 1.50300601202405  L 1.44329896907216 0.250501002004008  C 1.60366552119129 0.0835003340013352  1.78808705612829 0  1.99656357388316 0  C 2.20504009163803 0  2.38946162657503 0.0835003340013352  2.54982817869416 0.250501002004008  L 13.7594501718213 11.9238476953908  Z " fill-rule="nonzero" fill="#000000" stroke="none" transform="matrix(1 0 0 1 354 633 )" />
  </g>
</svg>