<?xml version="1.0" encoding="utf-8"?>
<svg version="1.1" xmlns:xlink="http://www.w3.org/1999/xlink" width="21px" height="20px" xmlns="http://www.w3.org/2000/svg">
  <g transform="matrix(1 0 0 1 -833 -22 )">
    <path d="M 20.78125 18.5714285714286  C 21.04375 18.3265306122449  21.04375 17.9183673469388  20.825 17.6734693877551  L 14.9625 12.2448979591837  C 16.14375 10.6938775510204  16.75625 8.73469387755102  16.45 6.65306122448979  C 15.925 3.14285714285714  12.8625 0.367346938775509  9.05625 0.0408163265306114  C 3.89375 -0.448979591836736  -0.481249999999999 3.63265306122449  0.0437500000000006 8.48979591836735  C 0.393750000000001 12  3.36875 14.8979591836735  7.13125 15.3877551020408  C 9.3625 15.6734693877551  11.4625 15.1020408163265  13.125 14  L 18.94375 19.4285714285714  C 19.20625 19.6734693877551  19.6 19.6734693877551  19.8625 19.4285714285714  L 20.78125 18.5714285714286  Z M 8.26875 12.9795918367347  C 5.1625 12.9795918367347  2.625 10.6530612244898  2.625 7.71428571428571  C 2.625 4.81632653061224  5.1625 2.44897959183673  8.26875 2.44897959183673  C 11.375 2.44897959183673  13.9125 4.81632653061224  13.9125 7.71428571428571  C 13.9125 10.6122448979592  11.375 12.9795918367347  8.26875 12.9795918367347  Z " fill-rule="nonzero" fill="#ffffff" stroke="none" transform="matrix(1 0 0 1 833 22 )" />
  </g>
</svg>