<?xml version="1.0" encoding="utf-8"?>
<svg version="1.1" xmlns:xlink="http://www.w3.org/1999/xlink" width="16px" height="16px" xmlns="http://www.w3.org/2000/svg">
  <g transform="matrix(1 0 0 1 -22 -21 )">
    <path d="M 15.8333333333333 14.8571428571429  C 16.0333333333333 14.6612244897959  16.0333333333333 14.334693877551  15.8666666666667 14.1387755102041  L 11.4 9.79591836734694  C 12.3 8.55510204081632  12.7666666666667 6.98775510204082  12.5333333333333 5.32244897959184  C 12.1333333333333 2.51428571428571  9.8 0.293877551020407  6.9 0.0326530612244891  C 2.96666666666667 -0.359183673469388  -0.366666666666666 2.90612244897959  0.0333333333333338 6.79183673469388  C 0.3 9.6  2.56666666666667 11.9183673469388  5.43333333333333 12.3102040816327  C 7.13333333333333 12.5387755102041  8.73333333333333 12.0816326530612  10 11.2  L 14.4333333333333 15.5428571428571  C 14.6333333333333 15.7387755102041  14.9333333333333 15.7387755102041  15.1333333333333 15.5428571428571  L 15.8333333333333 14.8571428571429  Z M 6.3 10.3836734693878  C 3.93333333333333 10.3836734693878  2 8.52244897959184  2 6.17142857142857  C 2 3.8530612244898  3.93333333333333 1.95918367346939  6.3 1.95918367346939  C 8.66666666666667 1.95918367346939  10.6 3.8530612244898  10.6 6.17142857142857  C 10.6 8.48979591836735  8.66666666666667 10.3836734693878  6.3 10.3836734693878  Z " fill-rule="nonzero" fill="#acacac" stroke="none" transform="matrix(1 0 0 1 22 21 )" />
  </g>
</svg>