<?xml version="1.0" encoding="utf-8"?>
<svg version="1.1" xmlns:xlink="http://www.w3.org/1999/xlink" width="28px" height="20px" xmlns="http://www.w3.org/2000/svg">
  <g transform="matrix(1 0 0 1 -24 -99 )">
    <path d="M 15.2727272727273 4.28571428571429  C 15.2727272727273 6.65  16.9845454545455 8.57142857142857  19.0909090909091 8.57142857142857  C 21.1972727272727 8.57142857142857  22.8963636363636 6.65  22.8963636363636 4.28571428571429  C 22.8963636363636 1.92142857142857  21.1972727272727 0  19.0909090909091 0  C 16.9845454545455 0  15.2727272727273 1.92142857142857  15.2727272727273 4.28571428571429  Z M 5.09090909090909 4.28571428571429  C 5.09090909090909 6.65  6.80272727272727 8.57142857142857  8.90909090909091 8.57142857142857  C 11.0154545454545 8.57142857142857  12.7145454545455 6.65  12.7145454545455 4.28571428571429  C 12.7145454545455 1.92142857142857  11.0154545454545 0  8.90909090909091 0  C 6.80272727272727 0  5.09090909090909 1.92142857142857  5.09090909090909 4.28571428571429  Z M 17.8181818181818 16.4285714285714  C 17.8181818181818 13.1  11.8809090909091 11.4285714285714  8.90909090909091 11.4285714285714  C 5.93727272727273 11.4285714285714  0 13.1  0 16.4285714285714  L 0 20  L 17.8181818181818 20  L 17.8181818181818 16.4285714285714  Z M 28 16.4285714285714  C 28 13.1  22.0627272727273 11.4285714285714  19.0909090909091 11.4285714285714  C 18.7218181818182 11.4285714285714  18.3081818181818 11.4571428571429  17.8627272727273 11.5071428571429  C 19.3390909090909 12.7  20.3636363636364 14.3071428571429  20.3636363636364 16.4285714285714  L 20.3636363636364 20  L 28 20  L 28 16.4285714285714  Z " fill-rule="nonzero" fill="#9b9b9b" stroke="none" transform="matrix(1 0 0 1 24 99 )" />
  </g>
</svg>